<?xml version="1.0" standalone="no"?>
<!DOCTYPE svg PUBLIC "-//W3C//DTD SVG 20010904//EN"
 "http://www.w3.org/TR/2001/REC-SVG-20010904/DTD/svg10.dtd">
<svg version="1.0" xmlns="http://www.w3.org/2000/svg"
 width="513.000000pt" height="513.000000pt" viewBox="0 0 513.000000 513.000000"
 preserveAspectRatio="xMidYMid meet">
<metadata>
Created by potrace 1.11, written by Peter Selinger 2001-2013
</metadata>
<g transform="translate(0.000000,513.000000) scale(0.100000,-0.100000)"
fill="#000000" stroke="none">
<path d="M3170 3381 c-107 -106 -253 -249 -323 -318 l-128 -126 -212 -3 c-117
-1 -212 -3 -212 -4 0 -1 -112 -3 -250 -5 -137 -2 -267 -7 -288 -10 -68 -10
-137 -65 -169 -135 -21 -47 -21 -56 -15 -380 l2 -75 35 3 c35 2 80 8 91 10 3
1 4 23 3 50 -2 49 -4 146 -3 172 0 8 -2 37 -4 63 -2 26 0 50 5 53 4 3 8 -1 8
-8 0 -8 24 -74 53 -147 45 -113 52 -138 43 -158 -6 -12 -14 -23 -18 -23 -5 0
-8 -5 -8 -11 0 -6 -9 -22 -20 -36 -20 -25 -20 -36 -15 -286 4 -208 8 -265 20
-283 8 -13 11 -25 7 -27 -7 -3 -15 -3 -102 7 -30 3 -86 8 -125 12 -95 8 -191
18 -305 30 -25 3 -65 7 -90 9 -25 2 -76 6 -113 9 -37 4 -82 8 -100 11 -18 3
-57 7 -87 9 -30 3 -82 7 -115 10 -33 4 -82 9 -110 11 -123 12 -152 15 -190 20
-22 3 -71 8 -110 11 -116 10 -137 11 -215 19 -41 4 -79 8 -84 8 -11 2 -26 -58
-17 -71 5 -9 63 -17 186 -27 22 -2 63 -6 90 -10 28 -3 79 -8 114 -10 35 -2 80
-6 100 -9 64 -9 186 -21 311 -32 130 -11 150 -13 186 -18 22 -3 71 -8 109 -12
101 -7 224 -19 310 -29 22 -2 65 -7 95 -10 30 -3 77 -8 104 -10 28 -3 77 -8
110 -11 34 -3 77 -7 96 -9 19 -2 64 -6 100 -9 36 -3 90 -9 120 -12 30 -3 73
-7 95 -9 22 -2 40 -4 40 -5 0 -1 29 -3 65 -6 36 -2 77 -5 92 -7 16 -2 56 0 90
5 35 5 81 11 103 13 22 3 60 7 83 9 24 3 56 7 70 10 15 3 56 8 92 11 36 3 76
8 90 10 41 6 122 16 170 21 25 3 56 6 70 9 66 10 109 15 150 20 62 6 137 14
185 21 22 3 54 8 70 10 17 2 53 7 80 10 28 4 71 7 97 8 27 1 48 4 48 7 0 3 6
6 13 6 39 3 193 20 252 29 22 3 57 6 77 7 21 1 38 4 38 7 0 3 12 5 28 6 31 1
145 14 257 29 28 4 61 8 75 10 14 1 50 5 80 9 30 4 71 9 90 11 19 3 55 7 80
11 25 3 56 7 70 8 31 4 136 17 170 21 14 2 52 6 85 10 73 8 85 19 73 63 -7 25
-13 32 -26 28 -9 -3 -42 -8 -72 -11 -30 -3 -71 -8 -90 -11 -19 -3 -55 -7 -80
-9 -25 -2 -45 -4 -45 -5 0 -1 -13 -4 -30 -5 -43 -5 -124 -14 -165 -20 -19 -2
-57 -7 -85 -10 -27 -3 -66 -8 -85 -11 -19 -3 -53 -7 -75 -9 -22 -2 -60 -6 -85
-10 -25 -4 -58 -9 -75 -11 -16 -1 -52 -6 -80 -9 -27 -3 -66 -8 -85 -10 -46 -4
-119 -14 -150 -20 -14 -2 -54 -7 -90 -11 -36 -3 -72 -7 -80 -9 -13 -2 -38 -6
-160 -20 -14 -2 -49 -6 -79 -9 -29 -4 -57 -9 -62 -12 -5 -3 -9 0 -9 7 0 8 -4
8 -12 1 -7 -5 -42 -13 -78 -17 -36 -4 -81 -9 -100 -12 -143 -19 -226 -25 -215
-16 33 26 35 71 22 523 l-4 115 55 105 c31 58 59 107 64 108 4 2 8 9 8 15 0 7
7 26 16 42 9 17 31 60 50 96 50 99 44 97 149 54 11 -5 22 -9 25 -9 14 -3 136
-50 145 -56 6 -4 31 -8 56 -9 37 -2 52 3 77 24 18 15 32 33 32 41 0 8 3 14 8
14 16 0 11 65 -8 94 -10 17 -91 103 -179 190 -123 123 -158 163 -149 173 6 7
7 13 3 13 -4 0 -3 6 2 13 8 10 44 97 49 117 0 3 4 14 9 25 4 11 14 35 22 54
l13 34 -21 -19 c-12 -10 -40 -36 -61 -56 -37 -36 -67 -51 -52 -26 4 6 8 21 10
32 1 12 8 47 14 79 6 33 10 60 8 60 -2 1 -91 -85 -198 -192z m-1157 -1128 c-1
-73 2 -85 47 -188 132 -302 159 -354 190 -370 15 -8 35 -12 46 -10 10 2 22 4
26 4 4 1 16 11 28 23 26 28 26 74 -2 135 -12 26 -22 50 -23 53 0 3 -6 15 -13
28 -7 12 -9 22 -5 22 4 0 4 4 -2 8 -10 7 -30 50 -82 179 -22 53 -24 64 -12 76
24 25 49 57 49 62 0 3 9 16 21 29 l21 24 71 -37 c40 -20 79 -38 87 -40 8 -2
28 -7 44 -12 31 -9 246 -5 281 5 11 3 30 8 42 12 21 6 21 4 23 -133 2 -144 7
-316 9 -345 0 -9 13 -30 27 -47 l26 -31 -34 -1 c-18 0 -42 -2 -53 -4 -11 -2
-47 -7 -80 -10 -33 -3 -71 -8 -85 -10 -27 -5 -58 -9 -160 -20 -101 -11 -322
-13 -350 -3 -14 5 -56 12 -95 14 -38 3 -79 7 -90 9 -11 2 -38 4 -60 5 -31 0
-36 3 -23 10 34 21 44 61 42 182 -1 65 -5 125 -8 133 -3 9 -2 13 4 10 6 -4 7
2 2 17 -4 13 -7 52 -7 88 0 58 5 72 40 129 22 36 39 69 38 73 -2 4 3 8 10 8 9
0 12 -21 10 -77z"/>
</g>
</svg>
